<?xml version="1.0" encoding="utf-8"?>
<!-- Generator: Adobe Illustrator 16.0.0, SVG Export Plug-In . SVG Version: 6.00 Build 0)  -->
<!DOCTYPE svg PUBLIC "-//W3C//DTD SVG 1.1//EN" "http://www.w3.org/Graphics/SVG/1.1/DTD/svg11.dtd">
<svg version="1.1" id="Layer_1" xmlns="http://www.w3.org/2000/svg" xmlns:xlink="http://www.w3.org/1999/xlink" x="0px" y="0px"
	 width="553px" height="287px" viewBox="0 0 553 287" enable-background="new 0 0 553 287" xml:space="preserve">
<g>
	<defs>
		<path id="SVGID_1_" d="M126.65,79.47c0,0-10.421,0.285-11.028,26.277c-0.604,25.984-1.052,45.048,7.895,42.549
			c8.951-2.503,13.103-50.421,11.624-57.383c-1.361-6.443-2.912-11.545-7.351-11.546C127.429,79.367,127.05,79.401,126.65,79.47"/>
	</defs>
	<clipPath id="SVGID_2_">
		<use xlink:href="#SVGID_1_"  overflow="visible"/>
	</clipPath>
	
		<linearGradient id="SVGID_3_" gradientUnits="userSpaceOnUse" x1="-140" y1="443.002" x2="-139" y2="443.002" gradientTransform="matrix(-537.5016 178.7476 178.7476 537.5016 -153925.1719 -213103.0625)">
		<stop  offset="0" style="stop-color:#9E7643"/>
		<stop  offset="0.1805" style="stop-color:#CDA161"/>
		<stop  offset="0.3082" style="stop-color:#F6C980"/>
		<stop  offset="0.4273" style="stop-color:#F2DE8E"/>
		<stop  offset="0.5876" style="stop-color:#9E7643"/>
		<stop  offset="0.7187" style="stop-color:#CDA161"/>
		<stop  offset="0.8533" style="stop-color:#F6C980"/>
		<stop  offset="1" style="stop-color:#F2DE8E"/>
		<stop  offset="1" style="stop-color:#C6C8CA"/>
		<stop  offset="1" style="stop-color:#AAACAF"/>
		<stop  offset="1" style="stop-color:#000000"/>
	</linearGradient>
	<polygon clip-path="url(#SVGID_2_)" fill="url(#SVGID_3_)" points="158.008,143.682 116.766,157.397 93.182,86.48 134.424,72.765 	
		"/>
</g>
<g>
	<defs>
		<path id="SVGID_4_" d="M128.466,55.221c-9.133,1.756-9.84,16.269-1.531,16.652c4.146,0.196,6.427-3.853,7.434-8.294
			c0.767-4.207-1.594-8.416-5.163-8.416C128.965,55.162,128.718,55.182,128.466,55.221"/>
	</defs>
	<clipPath id="SVGID_5_">
		<use xlink:href="#SVGID_4_"  overflow="visible"/>
	</clipPath>
	
		<linearGradient id="SVGID_6_" gradientUnits="userSpaceOnUse" x1="-140" y1="442.999" x2="-139" y2="442.999" gradientTransform="matrix(-537.5016 178.7476 178.7476 537.5016 -153939.9219 -213147.0625)">
		<stop  offset="0" style="stop-color:#9E7643"/>
		<stop  offset="0.1805" style="stop-color:#CDA161"/>
		<stop  offset="0.3082" style="stop-color:#F6C980"/>
		<stop  offset="0.4273" style="stop-color:#F2DE8E"/>
		<stop  offset="0.5876" style="stop-color:#9E7643"/>
		<stop  offset="0.7187" style="stop-color:#CDA161"/>
		<stop  offset="0.8533" style="stop-color:#F6C980"/>
		<stop  offset="1" style="stop-color:#F2DE8E"/>
		<stop  offset="1" style="stop-color:#C6C8CA"/>
		<stop  offset="1" style="stop-color:#AAACAF"/>
		<stop  offset="1" style="stop-color:#000000"/>
	</linearGradient>
	<polygon clip-path="url(#SVGID_5_)" fill="url(#SVGID_6_)" points="140.199,70.385 120.27,77.013 113.563,56.846 133.492,50.218 	
		"/>
</g>
<g>
	<defs>
		<path id="SVGID_7_" d="M150.748,85.949c-0.842,4.196-0.794,6.933-1.825,11.931c-1.032,4.993-3.242,13.996-3.526,21.544
			c-0.283,7.543-0.499,15.72,3.615,26.675c0,0,1.566,6.133,7.704-0.328c6.134-6.46,0.009-18.146,3.058-28.067
			c3.053-9.923,7.911-13.425,9.032-9.5c1.128,3.928,1.034,10.576,4.849,9.847c3.815-0.73,5.203-11.182,9.058-10.773
			c3.854,0.402,2.947,15.484,3.955,22.389c1.011,6.909-1.647,18.372,6.126,17.771c7.77-0.595,9.467-25.974,9.314-36.478
			c-0.145-10.505,0.706-18.319-5.863-26.37c-5.5-6.747-9.586-0.397-14.068,0.991c-11.874,3.654-13.916,2.485-17.352-0.954
			c0,0-2.291-3.003-5.73-3.58c-0.464-0.078-0.951-0.118-1.446-0.118C154.706,80.929,151.464,82.361,150.748,85.949"/>
	</defs>
	<clipPath id="SVGID_8_">
		<use xlink:href="#SVGID_7_"  overflow="visible"/>
	</clipPath>
	
		<linearGradient id="SVGID_9_" gradientUnits="userSpaceOnUse" x1="-140" y1="443.001" x2="-139" y2="443.001" gradientTransform="matrix(-537.5016 178.7476 178.7476 537.5016 -153920.1719 -213087.5625)">
		<stop  offset="0" style="stop-color:#9E7643"/>
		<stop  offset="0.1805" style="stop-color:#CDA161"/>
		<stop  offset="0.3082" style="stop-color:#F6C980"/>
		<stop  offset="0.4273" style="stop-color:#F2DE8E"/>
		<stop  offset="0.5876" style="stop-color:#9E7643"/>
		<stop  offset="0.7187" style="stop-color:#CDA161"/>
		<stop  offset="0.8533" style="stop-color:#F6C980"/>
		<stop  offset="1" style="stop-color:#F2DE8E"/>
		<stop  offset="1" style="stop-color:#C6C8CA"/>
		<stop  offset="1" style="stop-color:#AAACAF"/>
		<stop  offset="1" style="stop-color:#000000"/>
	</linearGradient>
	<polygon clip-path="url(#SVGID_8_)" fill="url(#SVGID_9_)" points="225.088,144.824 150.665,169.573 122.624,85.25 197.047,60.501 
			"/>
</g>
<g>
	<defs>
		<path id="SVGID_10_" d="M228.414,107.561c-1.242-6.753,12.773-12.477,12.773-12.477c7.222-2.035,8.646,8.576,4.725,12.477
			c-2.211,2.2-7.093,4.065-11.155,4.065C231.61,111.626,228.955,110.508,228.414,107.561 M242.701,85.395
			c0,0-19.504,3.92-26.323,17.569c-6.826,13.65-8.688,31.612,3.502,41.27c10.892,8.637,38.211,10.986,40.953-4.329
			c1.529-8.532-4.877-6.775-11.353-5.019c-3.117,0.846-6.251,1.692-8.523,1.389c0,0-13.626-1.64-11.484-10.275
			c2.144-8.631,21.329-7.887,27.097-13.819c4.348-4.479,10.733-17.491-1.782-25.077c-2.699-1.635-5.907-2.022-8.339-2.022
			C244.261,85.082,242.701,85.395,242.701,85.395"/>
	</defs>
	<clipPath id="SVGID_11_">
		<use xlink:href="#SVGID_10_"  overflow="visible"/>
	</clipPath>
	
		<linearGradient id="SVGID_12_" gradientUnits="userSpaceOnUse" x1="-140" y1="442.999" x2="-139" y2="442.999" gradientTransform="matrix(-537.5016 178.7476 178.7476 537.5016 -153911.9219 -213063.0625)">
		<stop  offset="0" style="stop-color:#9E7643"/>
		<stop  offset="0.1805" style="stop-color:#CDA161"/>
		<stop  offset="0.3082" style="stop-color:#F6C980"/>
		<stop  offset="0.4273" style="stop-color:#F2DE8E"/>
		<stop  offset="0.5876" style="stop-color:#9E7643"/>
		<stop  offset="0.7187" style="stop-color:#CDA161"/>
		<stop  offset="0.8533" style="stop-color:#F6C980"/>
		<stop  offset="1" style="stop-color:#F2DE8E"/>
		<stop  offset="1" style="stop-color:#C6C8CA"/>
		<stop  offset="1" style="stop-color:#AAACAF"/>
		<stop  offset="1" style="stop-color:#000000"/>
	</linearGradient>
	<polygon clip-path="url(#SVGID_11_)" fill="url(#SVGID_12_)" points="288.305,148.235 213.626,173.07 186.688,92.066 
		261.367,67.231 	"/>
</g>
<g>
	<defs>
		<path id="SVGID_13_" d="M289.201,103.263c-5.78,1.64-3.615,8.484-11.228,27.124c0,0-9.321,14.93-12.069,25.569
			c-2.746,10.633,2.391,16.365,8.962,10.989c6.573-5.377,17.675-4.983,17.443,2.047c-0.24,7.03,0.173,25.02,7.235,24.58
			c6.625-0.418,7.223-19.454,6.866-25.318c-0.19-3.102,0.695-2.71,3.03-2.319c2.066,0.348,5.271,0.694,9.871-1.382
			c0,0,5.011-2.267,2.505-8.597c-2.505-6.338-10.516-4.064-12.305-2.39c-1.796,1.673-3.343,0.547-3.343-1.82
			c0-2.366,0.115-15.146-5.494-13.234c-5.621,1.908-2.991,14.097-10.158,14.213c-7.169,0.115-2.441-14.577,0-18.878
			c3.318-5.85,14.576-20.551,5.97-29.152c0,0-1.727-1.789-4.827-1.789C290.917,102.906,290.096,103.008,289.201,103.263"/>
	</defs>
	<clipPath id="SVGID_14_">
		<use xlink:href="#SVGID_13_"  overflow="visible"/>
	</clipPath>
	
		<linearGradient id="SVGID_15_" gradientUnits="userSpaceOnUse" x1="-140" y1="443" x2="-139" y2="443" gradientTransform="matrix(-537.5016 178.7476 178.7476 537.5016 -153897.9219 -213021.0625)">
		<stop  offset="0" style="stop-color:#9E7643"/>
		<stop  offset="0.1805" style="stop-color:#CDA161"/>
		<stop  offset="0.3082" style="stop-color:#F6C980"/>
		<stop  offset="0.4273" style="stop-color:#F2DE8E"/>
		<stop  offset="0.5876" style="stop-color:#9E7643"/>
		<stop  offset="0.7187" style="stop-color:#CDA161"/>
		<stop  offset="0.8533" style="stop-color:#F6C980"/>
		<stop  offset="1" style="stop-color:#F2DE8E"/>
		<stop  offset="1" style="stop-color:#C6C8CA"/>
		<stop  offset="1" style="stop-color:#AAACAF"/>
		<stop  offset="1" style="stop-color:#000000"/>
	</linearGradient>
	<polygon clip-path="url(#SVGID_14_)" fill="url(#SVGID_15_)" points="351.604,184.939 269.249,212.327 235.877,111.979 
		318.232,84.591 	"/>
</g>
<g>
	<defs>
		<path id="SVGID_16_" d="M332.904,127.195c2.473-9.346,11.716-12.789,11.716-12.789s3.321-1.496,4.088,5.074
			c0.848,7.269-3.857,12.737-7.03,13.996c-1.202,0.477-3.104,1.033-4.871,1.033C333.905,134.509,331.369,133.009,332.904,127.195
			 M335.143,85.569c-10.016,3.003-15.595,4.681-19.433,12.798c-5.129,10.853,8.896,11.411,14.293,5.975
			c5.394-5.429,7.729,2.57,3.53,5.912c-4.192,3.338-16.519,14.144-15.134,23.145c1.372,8.999,7.538,15.603,17.678,14.982
			c10.132-0.619,10.017-7.604,13.069-7.232c4.211,0.515,1.075,6.352,5.776,6.929c6.129,0.748,9.834-43.264-0.346-58.009
			c-3.018-4.375-6.43-6.074-10.746-6.074C341.284,83.995,338.424,84.586,335.143,85.569"/>
	</defs>
	<clipPath id="SVGID_17_">
		<use xlink:href="#SVGID_16_"  overflow="visible"/>
	</clipPath>
	
		<linearGradient id="SVGID_18_" gradientUnits="userSpaceOnUse" x1="-140" y1="442.9941" x2="-139" y2="442.9941" gradientTransform="matrix(-537.5016 178.7476 178.7476 537.5016 -153902.4219 -213034.0625)">
		<stop  offset="0" style="stop-color:#9E7643"/>
		<stop  offset="0.1805" style="stop-color:#CDA161"/>
		<stop  offset="0.3082" style="stop-color:#F6C980"/>
		<stop  offset="0.4273" style="stop-color:#F2DE8E"/>
		<stop  offset="0.5876" style="stop-color:#9E7643"/>
		<stop  offset="0.7187" style="stop-color:#CDA161"/>
		<stop  offset="0.8533" style="stop-color:#F6C980"/>
		<stop  offset="1" style="stop-color:#F2DE8E"/>
		<stop  offset="1" style="stop-color:#C6C8CA"/>
		<stop  offset="1" style="stop-color:#AAACAF"/>
		<stop  offset="1" style="stop-color:#000000"/>
	</linearGradient>
	<polygon clip-path="url(#SVGID_17_)" fill="url(#SVGID_18_)" points="384.223,142.529 315.976,165.225 291.115,90.468 
		359.362,67.772 	"/>
</g>
<g>
	<defs>
		<path id="SVGID_19_" d="M370.158,47.716c-3.813,16.585-1.488,38.718-0.935,53.134c0.548,14.42-1.993,40.472,8.176,44.97
			c10.166,4.503,2.932-39.171,1.715-43.034c0,0,12.021-0.594,10.999-6.212c-1.027-5.622-8.031-7.664-11.758-5.168
			c0,0-2.745-25.824,3.358-36.443c5.588-9.722,14.913-9.715,20.132-9.707c0.481,0,0.929,0.001,1.333-0.006
			c4.802-0.071,5.11-8.231-0.654-8.494c-5.755-0.256-9.259-1.442-9.259-1.442s-2.169-0.471-5.195-0.471
			C382.068,34.843,372.692,36.691,370.158,47.716"/>
	</defs>
	<clipPath id="SVGID_20_">
		<use xlink:href="#SVGID_19_"  overflow="visible"/>
	</clipPath>
	
		<linearGradient id="SVGID_21_" gradientUnits="userSpaceOnUse" x1="-140" y1="443.0068" x2="-139" y2="443.0068" gradientTransform="matrix(-537.5016 178.7476 178.7476 537.5016 -153906.6719 -213047.0625)">
		<stop  offset="0" style="stop-color:#9E7643"/>
		<stop  offset="0.1805" style="stop-color:#CDA161"/>
		<stop  offset="0.3082" style="stop-color:#F6C980"/>
		<stop  offset="0.4273" style="stop-color:#F2DE8E"/>
		<stop  offset="0.5876" style="stop-color:#9E7643"/>
		<stop  offset="0.7187" style="stop-color:#CDA161"/>
		<stop  offset="0.8533" style="stop-color:#F6C980"/>
		<stop  offset="1" style="stop-color:#F2DE8E"/>
		<stop  offset="1" style="stop-color:#C6C8CA"/>
		<stop  offset="1" style="stop-color:#AAACAF"/>
		<stop  offset="1" style="stop-color:#000000"/>
	</linearGradient>
	<polygon clip-path="url(#SVGID_20_)" fill="url(#SVGID_21_)" points="442.868,138.824 370.521,162.883 331.766,46.342 
		404.112,22.283 	"/>
</g>
<g>
	<defs>
		<path id="SVGID_22_" d="M396.264,89.263c1.928,11.374,0.546,34.6,0.715,40.876c0.155,6.275-1.5,17.37,7.032,12.894
			c8.525-4.469,7.213-12.438,6.208-18.134c-1.004-5.698-0.346-22.251,1.708-24.273c2.22-2.183,5.961-4.692,11.81-1.35
			c5.839,3.34,7.87-0.515,7.055-4.115c-0.833-3.723-4.359-13.712-14.71-8.34c-8.823,4.564-7.42,1.728-7.361,0.307
			c0.123-2.853-1.8-5.012-5.452-6.01c0,0-1.014-0.32-2.282-0.32C398.503,80.797,395.043,82.022,396.264,89.263"/>
	</defs>
	<clipPath id="SVGID_23_">
		<use xlink:href="#SVGID_22_"  overflow="visible"/>
	</clipPath>
	
		<linearGradient id="SVGID_24_" gradientUnits="userSpaceOnUse" x1="-140" y1="443.0098" x2="-139" y2="443.0098" gradientTransform="matrix(-537.5016 178.7476 178.7476 537.5016 -153898.1719 -213021.5625)">
		<stop  offset="0" style="stop-color:#9E7643"/>
		<stop  offset="0.1805" style="stop-color:#CDA161"/>
		<stop  offset="0.3082" style="stop-color:#F6C980"/>
		<stop  offset="0.4273" style="stop-color:#F2DE8E"/>
		<stop  offset="0.5876" style="stop-color:#9E7643"/>
		<stop  offset="0.7187" style="stop-color:#CDA161"/>
		<stop  offset="0.8533" style="stop-color:#F6C980"/>
		<stop  offset="1" style="stop-color:#F2DE8E"/>
		<stop  offset="1" style="stop-color:#C6C8CA"/>
		<stop  offset="1" style="stop-color:#AAACAF"/>
		<stop  offset="1" style="stop-color:#000000"/>
	</linearGradient>
	<polygon clip-path="url(#SVGID_23_)" fill="url(#SVGID_24_)" points="451.582,140.866 398.684,158.457 375.066,87.44 
		427.965,69.849 	"/>
</g>
<g>
	<defs>
		<path id="SVGID_25_" d="M436.247,97.154c-0.416,16.748-0.505,47.647,8.663,46.58c9.161-1.069,7.655-30.88,7.655-30.88
			s3.112-32.017-10.203-31.716c0,0-0.037-0.005-0.106-0.005C441.475,81.133,436.634,81.756,436.247,97.154"/>
	</defs>
	<clipPath id="SVGID_26_">
		<use xlink:href="#SVGID_25_"  overflow="visible"/>
	</clipPath>
	
		<linearGradient id="SVGID_27_" gradientUnits="userSpaceOnUse" x1="-140" y1="443.002" x2="-139" y2="443.002" gradientTransform="matrix(-537.5016 178.7476 178.7476 537.5016 -153893.9219 -213008.5625)">
		<stop  offset="0" style="stop-color:#9E7643"/>
		<stop  offset="0.1805" style="stop-color:#CDA161"/>
		<stop  offset="0.3082" style="stop-color:#F6C980"/>
		<stop  offset="0.4273" style="stop-color:#F2DE8E"/>
		<stop  offset="0.5876" style="stop-color:#9E7643"/>
		<stop  offset="0.7187" style="stop-color:#CDA161"/>
		<stop  offset="0.8533" style="stop-color:#F6C980"/>
		<stop  offset="1" style="stop-color:#F2DE8E"/>
		<stop  offset="1" style="stop-color:#C6C8CA"/>
		<stop  offset="1" style="stop-color:#AAACAF"/>
		<stop  offset="1" style="stop-color:#000000"/>
	</linearGradient>
	<polygon clip-path="url(#SVGID_26_)" fill="url(#SVGID_27_)" points="474.831,138.432 437.728,150.771 416.589,87.207 
		453.692,74.867 	"/>
</g>
<g>
	<defs>
		<path id="SVGID_28_" d="M444.824,56.7c0,0-9.458,3.11-8.479,8.701c0.989,5.598,2.764,8.082,8.479,8.082
			c5.721,0,4.734-5.129,4.929-8.392c0.189-3.133,2.015-8.418-4.132-8.418C445.369,56.673,445.104,56.682,444.824,56.7"/>
	</defs>
	<clipPath id="SVGID_29_">
		<use xlink:href="#SVGID_28_"  overflow="visible"/>
	</clipPath>
	
		<linearGradient id="SVGID_30_" gradientUnits="userSpaceOnUse" x1="-140" y1="442.999" x2="-139" y2="442.999" gradientTransform="matrix(-537.5016 178.7476 178.7476 537.5016 -153907.9219 -213050.5625)">
		<stop  offset="0" style="stop-color:#9E7643"/>
		<stop  offset="0.1805" style="stop-color:#CDA161"/>
		<stop  offset="0.3082" style="stop-color:#F6C980"/>
		<stop  offset="0.4273" style="stop-color:#F2DE8E"/>
		<stop  offset="0.5876" style="stop-color:#9E7643"/>
		<stop  offset="0.7187" style="stop-color:#CDA161"/>
		<stop  offset="0.8533" style="stop-color:#F6C980"/>
		<stop  offset="1" style="stop-color:#F2DE8E"/>
		<stop  offset="1" style="stop-color:#C6C8CA"/>
		<stop  offset="1" style="stop-color:#AAACAF"/>
		<stop  offset="1" style="stop-color:#000000"/>
	</linearGradient>
	<polygon clip-path="url(#SVGID_29_)" fill="url(#SVGID_30_)" points="456.802,71.809 436.999,78.395 430.332,58.347 
		450.135,51.762 	"/>
</g>
<g>
	<defs>
		<path id="SVGID_31_" d="M460.691,104.45c-5.59,25.384-3.034,36.537,12.624,38.333c15.67,1.795,23.658-5.662,22.22-10.356
			c-1.44-4.677-5.278-3.985-11.029-1.73c-5.753,2.257-16.301-0.34-14.698-13.702c1.593-13.36,4.312-22.207,13.104-18.567
			c8.785,3.647,12.475,0.181,12.788-4.51c0.315-4.685-1.28-11.49-14.228-12.252c0,0-0.439-0.075-1.196-0.075
			C476.584,81.591,465.337,83.382,460.691,104.45"/>
	</defs>
	<clipPath id="SVGID_32_">
		<use xlink:href="#SVGID_31_"  overflow="visible"/>
	</clipPath>
	
		<linearGradient id="SVGID_33_" gradientUnits="userSpaceOnUse" x1="-140" y1="442.999" x2="-139" y2="442.999" gradientTransform="matrix(-537.5016 178.7476 178.7476 537.5016 -153890.1719 -212997.5625)">
		<stop  offset="0" style="stop-color:#9E7643"/>
		<stop  offset="0.1805" style="stop-color:#CDA161"/>
		<stop  offset="0.3082" style="stop-color:#F6C980"/>
		<stop  offset="0.4273" style="stop-color:#F2DE8E"/>
		<stop  offset="0.5876" style="stop-color:#9E7643"/>
		<stop  offset="0.7187" style="stop-color:#CDA161"/>
		<stop  offset="0.8533" style="stop-color:#F6C980"/>
		<stop  offset="1" style="stop-color:#F2DE8E"/>
		<stop  offset="1" style="stop-color:#C6C8CA"/>
		<stop  offset="1" style="stop-color:#AAACAF"/>
		<stop  offset="1" style="stop-color:#000000"/>
	</linearGradient>
	<polygon clip-path="url(#SVGID_32_)" fill="url(#SVGID_33_)" points="515.835,138.306 459.271,157.116 436.241,87.863 
		492.805,69.053 	"/>
</g>
<g>
	<defs>
		<path id="SVGID_34_" d="M517.829,125.052c-0.052-4.542,6.896-6.106,7.334-6.235c8.336-2.298,8.622,2.473,8.774,5.699
			c0.163,3.23-2.067,4.524-7.23,5.426c-1.029,0.179-1.999,0.273-2.893,0.274C520.226,130.216,517.868,128.696,517.829,125.052
			 M502.877,92.167c-3.083,14.667,2.741,13.943,5.489,12.855c2.749-1.085,3.775-13.399,8.057-12.134
			c4.292,1.268,10.984,13.076,0,17.948c-10.973,4.875-15.432,13.027-13.371,21.544c2.049,8.511,17.968,9.018,20.896,8.792
			c2.923-0.227,10.422-0.67,12.173-2.25c1.76-1.565,2.344-0.782,2.928,0.566c0.584,1.351,3.072,1.741,4.624,0.221
			c1.379-1.344,2.398-6.232-0.209-15.102c-2.611-8.875-2.076-14.548-3.73-21.121c-1.645-6.574-7.179-17.15-18.5-20.936
			c0,0-2.545-0.843-5.765-0.843C510.798,81.707,504.704,83.48,502.877,92.167"/>
	</defs>
	<clipPath id="SVGID_35_">
		<use xlink:href="#SVGID_34_"  overflow="visible"/>
	</clipPath>
	
		<linearGradient id="SVGID_36_" gradientUnits="userSpaceOnUse" x1="-140" y1="442.998" x2="-139" y2="442.998" gradientTransform="matrix(-537.5016 178.7476 178.7476 537.5016 -153885.9219 -212984.5625)">
		<stop  offset="0" style="stop-color:#9E7643"/>
		<stop  offset="0.1805" style="stop-color:#CDA161"/>
		<stop  offset="0.3082" style="stop-color:#F6C980"/>
		<stop  offset="0.4273" style="stop-color:#F2DE8E"/>
		<stop  offset="0.5876" style="stop-color:#9E7643"/>
		<stop  offset="0.7187" style="stop-color:#CDA161"/>
		<stop  offset="0.8533" style="stop-color:#F6C980"/>
		<stop  offset="1" style="stop-color:#F2DE8E"/>
		<stop  offset="1" style="stop-color:#C6C8CA"/>
		<stop  offset="1" style="stop-color:#AAACAF"/>
		<stop  offset="1" style="stop-color:#000000"/>
	</linearGradient>
	<polygon clip-path="url(#SVGID_35_)" fill="url(#SVGID_36_)" points="563.943,135.454 504.402,155.255 481.92,87.651 
		541.462,67.85 	"/>
</g>
<g>
	<defs>
		<path id="SVGID_37_" d="M105.457,12.955c-0.842,1.915-0.857,7.499-0.999,11.148c-0.143,3.647-0.512,2.913,0.142,6.284
			c0.43,2.217,0.511,2.9,0.07,4.006c-0.427,1.071-1.036,0.933-7.62,0.284c-3.047-0.303-9.94,0.727-13.313,2.429
			c-3.913,1.979-4.033,4.859-2.856,7.43c2.519,5.54,9.982,2.628,16.572,0.146c6.593-2.482,3.955,14.103,4.003,15.432
			c0,0-3.023,14.705-6.138,25.793c0,0-8.149,31.155-21.812,48.413c-13.661,17.253-11.501,18.21-35.709,33.79
			c0,0-4.274,2.47-18.338,8.008c-14.065,5.546-14.786,11.188-13.963,14.274c0.821,3.078,6.261,8.212,9.238,2.155
			c2.98-6.059,8.319-7.29,9.036-4.515c0.718,2.771-0.717,6.98-2.567,14.887c-1.849,7.905-2.67,20.738-1.744,28.34
			c0.924,7.598,2.362,19.101,3.902,29.469c1.537,10.366,2.565,16.632,5.646,16.116c3.078-0.514,3.086-13.141,2.879-21.657
			c-0.205-8.521-0.793-13.504-1.103-20.59c-0.306-7.086-0.694-15.717,0.482-23.46c1.182-7.789,5.139-8.154,7.133-3.668
			c1.829,4.125,3.686,11.863,4.735,29.545c0.472,8.02,1.066,38.598,5.277,38.5c4.21-0.109,5.86-19.82,5.033-56.781
			c0,0-0.206-7.803-0.515-16.53c-0.308-8.726,0.309-14.371,3.493-15.706c3.18-1.335,18.172-8.014,25.154,0.305
			c6.978,8.317,6.551,6.585,11.065,15.932c0,0,3.698,8.313,5.955,17.045c2.26,8.726,4.083,11.629,6.06,18.992
			c2.739,10.195,6.577,28.994,11.007,25.648c4.192-3.165-0.394-17.634-7.291-45.378c0,0-1.765-13.57-5.032-26.901
			c-3.059-12.488,0.408-12.632,1.024-12.774c0.865-0.206,8.366-2.795,14.849,29.307c6.578,32.572,4.765,30.084,5.995,41.066
			c1.232,10.99,2.259,12.426,4.311,12.321c2.056-0.102,4.52-8.823,1.644-42.712c-2.872-33.88-7.389-34.592-14.986-50.203
			c-7.6-15.605-15.71-27.205-13.248-41.684c2.467-14.475,3.89-34.12,3.89-34.12c2.784-22.585,4.795-39.549,9.346-46.254
			c4.793-7.065,13.9-3.839,14.382-10.791c0.306-4.433-7.084-6.522-16.551-4.11c0,0,4.966-22.158-4.107-21.801
			c0,0-0.237-0.048-0.609-0.048C108.322,10.336,106.468,10.657,105.457,12.955"/>
	</defs>
	<clipPath id="SVGID_38_">
		<use xlink:href="#SVGID_37_"  overflow="visible"/>
	</clipPath>
	
		<linearGradient id="SVGID_39_" gradientUnits="userSpaceOnUse" x1="-140" y1="442.9844" x2="-139" y2="442.9844" gradientTransform="matrix(-537.5016 178.7476 178.7476 537.5016 -153919.1719 -213084.5625)">
		<stop  offset="0" style="stop-color:#9E7643"/>
		<stop  offset="0.1805" style="stop-color:#CDA161"/>
		<stop  offset="0.3082" style="stop-color:#F6C980"/>
		<stop  offset="0.4273" style="stop-color:#F2DE8E"/>
		<stop  offset="0.5876" style="stop-color:#9E7643"/>
		<stop  offset="0.7187" style="stop-color:#CDA161"/>
		<stop  offset="0.8533" style="stop-color:#F6C980"/>
		<stop  offset="1" style="stop-color:#F2DE8E"/>
		<stop  offset="1" style="stop-color:#C6C8CA"/>
		<stop  offset="1" style="stop-color:#AAACAF"/>
		<stop  offset="1" style="stop-color:#000000"/>
	</linearGradient>
	<polygon clip-path="url(#SVGID_38_)" fill="url(#SVGID_39_)" points="214.087,250.738 17.555,316.096 -75.376,36.647 
		121.156,-28.709 	"/>
</g>
</svg>
