<svg version="1" xmlns="http://www.w3.org/2000/svg" width="354.667" height="354.667" viewBox="0 0 266.000000 266.000000"><path d="M105.5 2.2c-.3 1.3-.6 6.6-.8 11.7l-.2 9.5-5.6-.3c-6.7-.3-14.2 1.5-16.4 3.9-2.4 2.7-1.6 7.1 1.7 8.9 2.4 1.4 3.3 1.4 9.2-.6 4.6-1.5 6.7-1.8 7.5-1 3.2 3.2-.9 27.8-8.4 50.4-9.4 28.4-26.4 53.2-45.2 66-4.8 3.3-12.6 7.7-17.3 9.7-4.7 2-11.2 5-14.6 6.7-8.5 4.4-11.4 9.7-7.8 14.7 2.3 3.4 5.8 2.8 8.4-1.3 2.3-3.7 6.7-5.7 8-3.5.4.6-.2 5.1-1.3 9.8-3 12.3-2.9 36.2.2 56.2 3.1 20.9 4.6 24.9 7.9 21.7 1.8-1.9 2-8.6 1.3-46.7-.2-9.6.1-18.9.6-20.5 1.3-4.2 4.9-4.6 6.4-.8 2.2 5.8 3.9 17.7 4.9 35 1.5 26.6 2.4 32.3 5.4 32.3 3.8 0 5.7-22.8 5-59-.4-19.2-.3-25 .8-26.9 1.9-3.6 10.7-6.4 18.2-5.9 5.7.4 6.2.7 10.4 5.4 2.4 2.7 5.4 6.7 6.7 8.9 3.5 6 11 28.4 17.6 52 3.2 11.7 5 15.5 7.4 15.5 3.9 0 3.1-9.4-2.4-31.9-2.1-8.6-5.3-23.6-7.2-33.4-3-16.2-3.2-17.9-1.7-19.3 1.2-1.2 2-1.4 3.6-.5 7.1 3.8 12.9 26.4 18.1 70.5 1.7 14.2 5.8 15.8 7.2 2.9 1.5-12.9-2.1-53.4-5.5-63-.7-2.1-5.9-12.8-11.4-23.8-10.7-21.3-12.2-25.3-12.2-32.7 0-10.4 7.1-67.9 9.6-77.4 2.3-9.1 4.2-11.6 10.3-13.8 2.9-1.1 5.9-3 6.8-4.3 1.4-2.1 1.4-2.5-.1-4.8s-2.3-2.5-8.5-2.5h-6.8l.8-5.7c.8-5.9.3-10.9-1.4-13.1-.5-.6-2.7-1.2-4.8-1.2-3.2 0-4 .4-4.4 2.2z"/><path d="M124.1 46.6c-2.7 3.5-2.9 10.4-.3 12.7 5.5 5 12.2-1.5 11.2-10.8-.3-3.2-2-4.5-5.5-4.5-2.4 0-3.9.7-5.4 2.6zM123 70.2c-5.6 5.9-7 13.6-6.9 37.8 0 20.1.8 25.7 3.9 28.2 2.7 2.2 3.3 2.2 5.9 0 4.7-3.8 9-22.5 9.8-42.7.8-19.3-1.1-25.5-7.7-25.5-1.7 0-3.8.9-5 2.2zM153.6 71.2c-1.9 1.9-2.7 4.2-4.1 12.3-1 5.5-2.2 12.5-2.7 15.5-1.2 6.5-.5 27 1.1 32 .6 2 1.7 4.5 2.5 5.5 1.2 1.6 1.8 1.7 3.9.8 5.1-2.4 6.1-5.4 6.1-19.2.1-11.9.2-12.8 2.9-17.4 3.1-5.3 5.4-6 6.3-2 1.3 6.3 2.1 7.8 4.1 8.1 1.5.2 2.8-1 5.2-4.7 5.4-8.9 6.6-7.1 7.6 10.9 1 18.7 1.4 20.9 4 22.6 3 2 5.8.6 8.1-3.8 4.1-8 6-40.2 2.9-50.6-2.9-9.7-8.7-13.6-14.3-9.7-2.8 2-10.9 4.5-14.7 4.5-1.9 0-4.6-1.3-7.4-3.5-5.1-4.1-8-4.4-11.5-1.3zM236.5 75.8c-15.3 6.6-21.1 13.5-24.1 29-4 20.6 6.4 33.7 27.7 35 11.9.7 20.1-3.2 21.5-10.3 1.4-7.7-1.2-8.8-13.1-6-9.5 2.3-17.7-1-17.7-7 0-4.3 3.7-6.9 15.1-10.4 10.8-3.4 13.8-5.8 16.1-12.7 2-6.1.7-11.3-3.9-15.6-3.8-3.6-4.3-3.8-10.8-3.7-4.1 0-8.4.7-10.8 1.7zm10.3 9.4c.7.7 1.2 3.1 1.2 5.5 0 3.8-.4 4.6-3.2 6.3-7.3 4.4-14.8 3.5-14.8-1.8 0-3.1 2.3-5.7 8-9.1 3.9-2.4 7-2.7 8.8-.9z"/></svg>